<?xml version="1.0" encoding="UTF-8" standalone="no"?>
<!-- Created with Inkscape (http://www.inkscape.org/) -->

<svg
   version="1.1"
   id="svg974"
   width="192"
   height="192"
   viewBox="0 0 192 192"
   sodipodi:docname="Lingualibre_SignIt-logo-no-text.svg"
   inkscape:version="1.2.2 (b0a8486541, 2022-12-01)"
   xmlns:inkscape="http://www.inkscape.org/namespaces/inkscape"
   xmlns:sodipodi="http://sodipodi.sourceforge.net/DTD/sodipodi-0.dtd"
   xmlns="http://www.w3.org/2000/svg"
   xmlns:svg="http://www.w3.org/2000/svg"
   xmlns:rdf="http://www.w3.org/1999/02/22-rdf-syntax-ns#"
   xmlns:cc="http://creativecommons.org/ns#"
   xmlns:dc="http://purl.org/dc/elements/1.1/">
  <metadata
     id="metadata980">
    <rdf:RDF>
      <cc:Work
         rdf:about="">
        <dc:format>image/svg+xml</dc:format>
        <dc:type
           rdf:resource="http://purl.org/dc/dcmitype/StillImage" />
      </cc:Work>
    </rdf:RDF>
  </metadata>
  <defs
     id="defs978" />
  <sodipodi:namedview
     pagecolor="#ffffff"
     bordercolor="#666666"
     borderopacity="1"
     objecttolerance="10"
     gridtolerance="10"
     guidetolerance="10"
     inkscape:pageopacity="0"
     inkscape:pageshadow="2"
     inkscape:window-width="1850"
     inkscape:window-height="1016"
     id="namedview976"
     showgrid="false"
     inkscape:zoom="3.9611074"
     inkscape:cx="86.844401"
     inkscape:cy="94.039359"
     inkscape:window-x="0"
     inkscape:window-y="0"
     inkscape:window-maximized="1"
     inkscape:current-layer="svg974"
     fit-margin-top="0"
     fit-margin-left="0"
     fit-margin-right="0"
     fit-margin-bottom="0"
     inkscape:showpageshadow="2"
     inkscape:pagecheckerboard="0"
     inkscape:deskcolor="#d1d1d1" />
  <g
     id="g984"
     transform="translate(-20.598468,21.121119)" />
  <g
     id="g917"
     transform="translate(-21.1273,99.427174)">
    <path
       inkscape:connector-curvature="0"
       id="path858"
       style="font-style:normal;font-variant:normal;font-weight:600;font-stretch:normal;font-size:42.6667px;line-height:125%;font-family:'Linux Libertine';-inkscape-font-specification:'Linux Libertine Semi-Bold';text-align:center;letter-spacing:0px;word-spacing:0px;text-anchor:middle;fill:#393939;fill-opacity:1;stroke:none;stroke-width:1px;stroke-linecap:butt;stroke-linejoin:miter;stroke-opacity:1"
       d="m 10.154913,135.72991 v 21.20534 c 0,1.32266 -0.2560004,1.70666 -1.2800004,1.70666 H 7.5095792 c -0.512,0 -0.6826667,0.21334 -0.6826667,0.512 v 0.85334 l 0.1706667,0.0853 c 0,0 3.3279998,-0.0853 5.0346668,-0.0853 H 26.70958 c 0.08533,-2.38934 0.554666,-5.07734 1.024,-7.38134 l -1.664,-0.34133 c -0.682667,2.60267 -2.218667,5.76 -5.589334,5.76 h -3.669333 c -0.896,0 -1.450667,-0.68267 -1.450667,-1.96267 v -20.352 c 0,-1.19466 0.554667,-1.87733 2.304,-1.87733 h 0.64 c 0.170667,0 0.298667,-0.128 0.298667,-0.34133 v -1.024 l -0.08533,-0.0853 c 0,0 -4.266667,0.0853 -5.760001,0.0853 -1.664,0 -5.8453331,-0.0853 -5.8453331,-0.0853 l -0.085333,0.0853 v 1.024 c 0,0.21333 0.1706667,0.34133 0.3840001,0.34133 h 0.5973333 c 1.6640001,0 2.3466667,0.512 2.3466667,1.87733 z" />
    <path
       inkscape:connector-curvature="0"
       id="path860"
       style="font-style:normal;font-variant:normal;font-weight:600;font-stretch:normal;font-size:42.6667px;line-height:125%;font-family:'Linux Libertine';-inkscape-font-specification:'Linux Libertine Semi-Bold';text-align:center;letter-spacing:0px;word-spacing:0px;text-anchor:middle;fill:#393939;fill-opacity:1;stroke:none;stroke-width:1px;stroke-linecap:butt;stroke-linejoin:miter;stroke-opacity:1"
       d="m 37.845503,146.31125 c 0,-2.13334 0.128,-5.248 0.128,-5.248 0,-0.0853 -0.213334,-0.128 -0.298667,-0.128 -1.365333,0.42666 -4.352,0.896 -7.296,1.28 l 0.08533,1.28 1.749333,0.17066 c 0.597334,0.0427 0.938667,0.512 0.938667,2.64534 v 10.41066 c 0,1.19467 -0.682667,1.62134 -2.005333,1.83467 l -0.512,0.0853 c -0.170667,0.0427 -0.298667,0.128 -0.298667,0.384 v 0.98134 l 0.08533,0.0853 c 0,0 3.456001,-0.0853 4.992001,-0.0853 1.664,0 5.12,0.0853 5.12,0.0853 l 0.08533,-0.0853 v -0.98131 c 0,-0.256 -0.213333,-0.34133 -0.341333,-0.384 l -0.426667,-0.0853 c -1.28,-0.21333 -2.005333,-0.64 -2.005333,-1.83467 z m -4.949334,-10.66667 c 0,1.408 1.152,2.56 2.56,2.56 1.408,0 2.56,-1.152 2.56,-2.56 0,-1.408 -1.152,-2.56 -2.56,-2.56 -1.408,0 -2.56,1.152 -2.56,2.56 z" />
    <path
       inkscape:connector-curvature="0"
       id="path862"
       style="font-style:normal;font-variant:normal;font-weight:600;font-stretch:normal;font-size:42.6667px;line-height:125%;font-family:'Linux Libertine';-inkscape-font-specification:'Linux Libertine Semi-Bold';text-align:center;letter-spacing:0px;word-spacing:0px;text-anchor:middle;fill:#393939;fill-opacity:1;stroke:none;stroke-width:1px;stroke-linecap:butt;stroke-linejoin:miter;stroke-opacity:1"
       d="m 49.920139,143.75125 h -0.08533 l 0.08533,-2.688 c 0,-0.0853 -0.213333,-0.128 -0.298666,-0.128 -1.365334,0.42666 -4.181334,0.896 -7.168001,1.28 l 0.08533,1.45066 1.749333,0.17067 c 0.597334,0.0427 0.938667,0.34133 0.938667,2.47467 v 10.45333 c 0,1.19467 -0.682667,1.49333 -2.048,1.792 l -0.384,0.0853 c -0.213334,0.0853 -0.341334,0.128 -0.341334,0.384 v 0.98134 l 0.08533,0.0853 c 0,0 3.456,-0.0853 4.949333,-0.0853 1.664,0 4.906667,0.0853 4.906667,0.0853 l 0.08533,-0.0853 v -0.98131 c 0,-0.256 -0.213333,-0.34133 -0.341333,-0.384 l -0.170667,-0.0427 c -1.322666,-0.29867 -2.048,-0.68267 -2.048,-1.83467 v -11.30663 c 2.090667,-1.32266 3.882667,-2.00533 5.162667,-2.00533 1.536,0 1.792,1.28 1.792,4.18133 v 9.13067 c 0,1.19467 -0.725333,1.536 -2.048,1.83467 l -0.170667,0.0427 c -0.213333,0.0853 -0.341333,0.128 -0.341333,0.384 v 0.98134 l 0.08533,0.0853 c 0,0 3.242667,-0.0853 4.778667,-0.0853 1.664,0 5.077334,0.0853 5.077334,0.0853 l 0.08533,-0.0853 v -0.98138 c 0,-0.256 -0.213333,-0.34133 -0.341333,-0.384 l -0.341334,-0.0853 c -1.322666,-0.29867 -2.090666,-0.59733 -2.090666,-1.792 v -8.832 c 0,-3.88267 -0.64,-6.86933 -5.205334,-6.86933 -2.048,0 -4.266667,1.024 -6.442667,2.688 z" />
    <path
       inkscape:connector-curvature="0"
       id="path864"
       style="font-style:normal;font-variant:normal;font-weight:600;font-stretch:normal;font-size:42.6667px;line-height:125%;font-family:'Linux Libertine';-inkscape-font-specification:'Linux Libertine Semi-Bold';text-align:center;letter-spacing:0px;word-spacing:0px;text-anchor:middle;fill:#393939;fill-opacity:1;stroke:none;stroke-width:1px;stroke-linecap:butt;stroke-linejoin:miter;stroke-opacity:1"
       d="m 78.378797,147.88991 c 0,4.096 -1.706667,4.77867 -2.816,4.77867 -2.645334,0 -3.498667,-3.328 -3.498667,-5.504 0,-3.15733 1.28,-4.608 2.944,-4.608 2.005334,0 3.370667,1.96267 3.370667,5.33333 z m -5.504,12.75734 c 0.469333,0 1.152,0 1.792,-0.0427 0.554667,-0.0427 0.938667,-0.0853 1.322667,-0.0853 1.92,0 6.229333,0.128 6.229333,2.944 0,3.2 -4.096,4.90666 -7.296,4.90666 -1.194667,0 -4.394667,-1.23733 -4.394667,-4.26666 0,-1.45067 0.04267,-2.688 0.938667,-3.62667 0.426666,0.17067 0.896,0.17067 1.408,0.17067 z m 11.264,-16.98134 c 1.194667,0 1.877334,-0.68266 1.877334,-1.70666 0,-0.81067 -0.682667,-1.87734 -2.304001,-1.87734 -1.152,0 -3.072,0.68267 -4.309333,1.792 -0.768,-0.42666 -2.090667,-0.81066 -4.010667,-0.81066 -4.096,0 -7.850667,2.51733 -7.850667,6.48533 0,2.09067 1.024,4.26667 2.602667,5.376 -1.28,1.19467 -2.218667,2.60267 -2.218667,3.92533 0,1.36534 0.853334,2.38934 2.048,3.11467 -2.218666,1.49333 -3.456,3.328 -3.456,4.992 0,3.79733 3.712,5.20533 7.210667,5.20533 5.930667,0 12.373334,-3.11466 12.373334,-7.808 0,-1.62133 -1.706667,-4.736 -8.661334,-4.736 -1.621333,0 -3.626667,0.29867 -4.010667,0.29867 -0.768,0 -1.92,-0.512 -1.92,-2.21867 0,-0.68266 0.04267,-1.57866 0.256,-2.09066 0.896,0.42666 2.261334,0.64 3.584001,0.64 4.010666,0 7.637333,-2.304 7.637333,-6.48534 0,-2.38933 -0.853333,-3.88266 -2.304,-5.07733 0.341333,-0.42667 0.810667,-0.768 1.237333,-0.768 0.384,0 0.512,0.256 0.64,0.512 0.170667,0.55467 0.512,1.23733 1.578667,1.23733 z" />
    <path
       inkscape:connector-curvature="0"
       id="path866"
       style="font-style:normal;font-variant:normal;font-weight:600;font-stretch:normal;font-size:42.6667px;line-height:125%;font-family:'Linux Libertine';-inkscape-font-specification:'Linux Libertine Semi-Bold';text-align:center;letter-spacing:0px;word-spacing:0px;text-anchor:middle;fill:#393939;fill-opacity:1;stroke:none;stroke-width:1px;stroke-linecap:butt;stroke-linejoin:miter;stroke-opacity:1"
       d="m 106.45344,155.10058 v -10.19733 c 0,-1.70667 0.0853,-3.49867 0.0853,-3.49867 0,0 -1.664,0.0853 -2.56,0.0853 -1.152,0 -4.735998,-0.0853 -4.735998,-0.0853 l -0.170667,0.0853 v 1.28 l 0.170667,0.0853 1.322668,0.0853 c 0.768,0 1.19466,0.68267 1.19466,2.048 v 11.73343 c -1.57866,1.36534 -3.370662,1.57867 -4.309328,1.57867 -0.896,0 -2.304,-0.768 -2.304,-4.352 v -9.04533 c 0,-1.57867 0.04267,-3.49867 0.04267,-3.49867 0,0 -1.877333,0.0853 -2.474666,0.0853 -1.365334,0 -4.736001,-0.0853 -4.736001,-0.0853 l -0.213333,0.0853 v 1.28 l 0.128,0.0853 1.322667,0.0853 c 0.981333,0.0853 1.237333,0.768 1.237333,2.048 v 9.55733 c 0,2.98667 0.981334,5.888 5.930667,5.888 1.578667,0 3.498667,-0.64 5.504001,-1.92 l -0.128,2.00534 h 1.45067 c 1.10933,-0.64 2.13333,-1.19467 6.016,-1.70667 l -0.0427,-1.32267 c -2.304,-0.128 -2.73067,-1.10933 -2.73067,-2.38933 z" />
    <path
       inkscape:connector-curvature="0"
       id="path868"
       style="font-style:normal;font-variant:normal;font-weight:600;font-stretch:normal;font-size:42.6667px;line-height:125%;font-family:'Linux Libertine';-inkscape-font-specification:'Linux Libertine Semi-Bold';text-align:center;letter-spacing:0px;word-spacing:0px;text-anchor:middle;fill:#393939;fill-opacity:1;stroke:none;stroke-width:1px;stroke-linecap:butt;stroke-linejoin:miter;stroke-opacity:1"
       d="m 122.1974,157.95925 h 0.0853 c 0.512,1.664 1.62133,2.47466 4.18133,2.47466 2.34667,0 3.968,-1.83466 3.968,-2.048 0,-0.29866 -0.384,-0.85333 -0.55467,-0.85333 -0.256,0 -0.29866,0.68267 -1.32266,0.68267 -1.664,0 -1.70667,-1.62134 -1.70667,-3.584 v -6.18667 c 0,-6.144 -3.49867,-7.38133 -6.99733,-7.38133 -3.11467,0 -7.59467,2.21866 -7.59467,4.77866 0,1.10934 0.46933,1.792 2.00533,1.792 1.19467,0 2.21867,-1.024 2.21867,-1.62133 0,-0.512 -0.256,-0.98133 -0.256,-1.83467 0,-0.93866 1.408,-1.49333 3.02933,-1.49333 1.792,0 2.98667,0.93867 2.98667,6.35733 l -3.072,0.896 c -4.43733,1.32267 -7.424,2.64534 -7.424,6.016 0,2.944 1.408,4.48 5.12,4.48 1.792,0 3.66933,-1.024 5.33333,-2.47466 z m 0.0427,-1.57867 c -1.06667,0.85333 -2.56,1.70667 -3.328,1.70667 -2.048,0 -2.688,-1.28 -2.688,-2.77334 0,-1.74933 0.55467,-3.02933 3.584,-3.92533 l 2.432,-0.72533 z" />
    <path
       inkscape:connector-curvature="0"
       id="path870"
       style="font-style:normal;font-variant:normal;font-weight:normal;font-stretch:normal;font-size:66.6667px;line-height:125%;font-family:Noto;-inkscape-font-specification:Noto;text-align:center;letter-spacing:0px;word-spacing:0px;text-anchor:middle;fill:#3366cc;fill-opacity:1;stroke:none;stroke-width:1px;stroke-linecap:butt;stroke-linejoin:miter;stroke-opacity:1"
       d="m 145.45066,135.72991 v 21.20534 c 0,1.32266 -0.256,1.70666 -1.28,1.70666 h -1.36533 c -0.512,0 -0.68267,0.21334 -0.68267,0.512 v 0.85334 l 0.17067,0.0853 c 0,0 3.328,-0.0853 5.03466,-0.0853 h 14.67734 c 0.0853,-2.38934 0.55466,-5.07734 1.024,-7.38134 l -1.664,-0.34133 c -0.68267,2.60267 -2.21867,5.76 -5.58934,5.76 h -3.66933 c -0.896,0 -1.45067,-0.68267 -1.45067,-1.96267 v -20.352 c 0,-1.19466 0.55467,-1.87733 2.304,-1.87733 h 0.64 c 0.17067,0 0.29867,-0.128 0.29867,-0.34133 v -1.024 l -0.0853,-0.0853 c 0,0 -4.26667,0.0853 -5.76,0.0853 -1.664,0 -5.84534,-0.0853 -5.84534,-0.0853 l -0.0853,0.0853 v 1.024 c 0,0.21333 0.17067,0.34133 0.384,0.34133 h 0.59733 c 1.664,0 2.34667,0.512 2.34667,1.87733 z" />
    <path
       inkscape:connector-curvature="0"
       id="path872"
       style="font-style:normal;font-variant:normal;font-weight:normal;font-stretch:normal;font-size:66.6667px;line-height:125%;font-family:Noto;-inkscape-font-specification:Noto;text-align:center;letter-spacing:0px;word-spacing:0px;text-anchor:middle;fill:#3366cc;fill-opacity:1;stroke:none;stroke-width:1px;stroke-linecap:butt;stroke-linejoin:miter;stroke-opacity:1"
       d="m 173.14125,146.31125 c 0,-2.13334 0.128,-5.248 0.128,-5.248 0,-0.0853 -0.21333,-0.128 -0.29867,-0.128 -1.36533,0.42666 -4.352,0.896 -7.296,1.28 l 0.0853,1.28 1.74934,0.17066 c 0.59733,0.0427 0.93867,0.512 0.93867,2.64534 v 10.41066 c 0,1.19467 -0.68267,1.62134 -2.00534,1.83467 l -0.512,0.0853 c -0.17067,0.0427 -0.29867,0.128 -0.29867,0.384 v 0.98134 l 0.0853,0.0853 c 0,0 3.456,-0.0853 4.992,-0.0853 1.664,0 5.12,0.0853 5.12,0.0853 l 0.0853,-0.0853 v -0.98131 c 0,-0.256 -0.21333,-0.34133 -0.34133,-0.384 l -0.42667,-0.0853 c -1.28,-0.21333 -2.00533,-0.64 -2.00533,-1.83467 z m -4.94934,-10.66667 c 0,1.408 1.15201,2.56 2.56001,2.56 1.408,0 2.56,-1.152 2.56,-2.56 0,-1.408 -1.152,-2.56 -2.56,-2.56 -1.408,0 -2.56001,1.152 -2.56001,2.56 z" />
    <path
       inkscape:connector-curvature="0"
       id="path874"
       style="font-style:normal;font-variant:normal;font-weight:normal;font-stretch:normal;font-size:66.6667px;line-height:125%;font-family:Noto;-inkscape-font-specification:Noto;text-align:center;letter-spacing:0px;word-spacing:0px;text-anchor:middle;fill:#3366cc;fill-opacity:1;stroke:none;stroke-width:1px;stroke-linecap:butt;stroke-linejoin:miter;stroke-opacity:1"
       d="m 184.19189,157.61791 v -13.056 c 1.408,-0.896 2.26133,-1.32266 3.28533,-1.32266 2.09067,0 3.92533,3.2 3.92533,7.38133 0,4.736 -1.70666,8.064 -5.07733,8.064 -0.768,0 -1.408,-0.256 -2.13333,-1.06667 z m -4.69334,-21.632 v 20.864 c 0,1.62134 -0.0427,2.432 -0.17066,3.456 l 1.45066,0.256 1.28,-2.26133 c 1.024,1.19467 2.60267,2.13333 4.48,2.13333 4.736,0 9.77067,-3.968 9.77067,-10.79466 0,-5.248 -3.584,-8.576 -7.76533,-8.576 -1.62134,0 -3.11467,0.896 -4.352,1.792 v -7.72267 c 0,-2.77333 0.128,-4.48 0.128,-4.48 0,-0.29867 -0.29867,-0.42667 -0.68267,-0.42667 -1.10933,0.42667 -5.46134,0.98134 -7.168,1.10934 l 0.128,1.23733 c 0,0.128 0.0853,0.21333 0.256,0.21333 l 1.36533,0.0853 c 0.85334,0 1.28,0.34133 1.28,3.11466 z" />
    <path
       inkscape:connector-curvature="0"
       id="path876"
       style="font-style:normal;font-variant:normal;font-weight:normal;font-stretch:normal;font-size:66.6667px;line-height:125%;font-family:Noto;-inkscape-font-specification:Noto;text-align:center;letter-spacing:0px;word-spacing:0px;text-anchor:middle;fill:#3366cc;fill-opacity:1;stroke:none;stroke-width:1px;stroke-linecap:butt;stroke-linejoin:miter;stroke-opacity:1"
       d="m 206.71985,143.75125 h -0.0853 l 0.0853,-2.688 c 0,-0.0853 -0.21333,-0.128 -0.29867,-0.128 -1.36533,0.42666 -4.18133,0.896 -7.168,1.28 l 0.0853,1.45066 1.74933,0.17067 c 0.59733,0.0427 0.93867,0.34133 0.93867,2.47467 v 10.41066 c 0,1.152 -0.72534,1.57867 -2.048,1.83467 l -0.42667,0.0853 c -0.17067,0.0427 -0.29867,0.128 -0.29867,0.384 v 0.98134 l 0.0853,0.0853 c 0,0 3.41333,-0.0853 4.94933,-0.0853 1.664,0 5.07733,0.0853 5.07733,0.0853 l 0.0853,-0.0853 v -0.98131 c 0,-0.256 -0.21334,-0.34133 -0.34134,-0.384 l -0.34133,-0.0853 c -1.32267,-0.29867 -2.048,-0.64 -2.048,-1.83467 v -9.00266 c 0,-1.49334 0.46933,-2.51734 1.10933,-2.98667 0.512,-0.34133 0.85334,-0.55467 1.536,-0.55467 0.768,0 1.45067,1.70667 3.15734,1.70667 1.23733,0 2.13333,-1.06667 2.13333,-2.432 0,-1.10933 -0.93867,-2.38933 -2.47467,-2.38933 -1.49333,0 -3.328,0.512 -5.46133,2.688 z" />
    <path
       inkscape:connector-curvature="0"
       id="path878"
       style="font-style:normal;font-variant:normal;font-weight:normal;font-stretch:normal;font-size:66.6667px;line-height:125%;font-family:Noto;-inkscape-font-specification:Noto;text-align:center;letter-spacing:0px;word-spacing:0px;text-anchor:middle;fill:#3366cc;fill-opacity:1;stroke:none;stroke-width:1px;stroke-linecap:butt;stroke-linejoin:miter;stroke-opacity:1"
       d="m 221.35442,147.84725 c 0.59733,-4.352 3.11467,-4.992 4.01067,-4.992 1.152,0 2.90133,1.10933 2.90133,4.52266 0,0.256 0,0.384 -0.0853,0.46934 z m 10.368,7.50933 c -1.57867,1.92 -3.15733,2.688 -4.77867,2.688 -3.328,0 -5.80266,-3.2 -5.80266,-7.38133 v -1.10934 h 10.368 c 1.024,0 1.664,-0.29866 1.664,-0.896 0,-3.62666 -1.49334,-7.59466 -7.76534,-7.59466 -4.48,0 -9.17333,3.968 -9.17333,10.496 0,4.69333 2.56,8.87466 9.04533,8.87466 2.944,0 5.93067,-0.98133 7.50934,-4.18133 z" />
  </g>
  <g
     id="g402"
     transform="translate(-2.8727024,-11.453809)">
    <path
       style="fill:#484848;fill-opacity:1;stroke:none;stroke-width:0.64"
       d="m 94.72388,147.99269 c -0.83805,-3.48155 0.24564,-11.5143 0,-18.41289 C 80.34129,127.55289 73.726296,117.896 70.302906,108.72483 68.943207,104.91731 68.819981,103.39093 68.612704,87.787901 68.390976,71.097077 68.403002,70.914323 70.067175,65.687987 74.007879,53.312186 86.41043,44.234027 99.19372,44.381816 c 14.76481,0.170698 24.65265,7.683805 28.8626,21.54415 1.22555,4.034861 1.54485,10.685397 1.07822,22.156822 -0.44046,10.828186 -0.93461,16.517032 -1.89338,20.418502 -3.51995,15.13477 -14.79151,18.95867 -23.13061,21.07851 -0.0312,4.9105 1.0763,15.24625 0,18.58718 -1.47262,4.57111 -8.28686,4.39467 -9.38667,-0.17429 z m 0,-94.509892 c -7.54047,-0.37958 -16.320953,8.080268 -16.639997,15.913824 0,1.506112 0.21594,1.621972 3.039997,1.631076 1.672,0.0054 3.38565,0.22952 3.80812,0.498067 1.3246,0.842003 1.98072,3.51738 1.32437,5.400198 -0.60391,1.732377 -2.52699,2.616664 -6.89249,3.169364 -2.503214,0.316924 -2.01131,2.088971 0.64,2.30556 4.97634,0.406528 7.58423,2.997152 6.35693,6.314835 -0.69635,1.882426 -1.67612,2.385434 -5.39693,2.770778 -2.662867,0.275769 -3.199995,0.546252 -3.199995,1.611398 0,0.956557 0.485168,1.324346 1.919995,1.455494 4.9754,0.454759 6.72,1.667213 6.72,4.670221 0,2.698327 -2.01226,4.434287 -5.14008,4.434287 -3.311177,0 -3.794353,1.1803 -1.99735,4.87907 2.71412,6.27678 6.62539,11.515 15.45743,11.76092 z m 25.27544,50.807722 c -0.21504,-0.34794 -1.59799,-0.63703 -3.07321,-0.64242 -3.0443,-0.0111 -3.78634,-0.37214 -4.82642,-2.34813 -1.81763,-3.453214 0.2278,-6.087224 5.1074,-6.577067 2.89512,-0.290631 3.43679,-0.546746 3.43679,-1.625005 0,-1.096077 -0.53752,-1.327789 -3.74077,-1.612563 -4.00379,-0.355943 -5.53923,-1.51984 -5.53923,-4.198861 0,-2.630739 2.10582,-4.347936 5.79255,-4.723571 1.86761,-0.190285 3.50447,-0.703616 3.65002,-1.144666 0.30894,-0.936257 -0.36992,-1.201114 -4.4947,-1.753597 -3.5208,-0.471584 -5.35567,-2.454828 -4.69746,-5.077326 0.63879,-2.545147 2.14686,-3.569416 5.25539,-3.569416 1.91205,0 2.97275,-0.308472 3.21293,-0.934385 -0.88312,-11.37306 -8.526,-16.96081 -15.97206,-16.600715 v 66.815092 c 7.9852,-0.28529 15.41199,-9.22993 15.88877,-16.00737 z"
       id="path986"
       inkscape:connector-curvature="0"
       sodipodi:nodetypes="sccsssssccsscccccscccscsscccccsssssccscscccc" />
    <g
       aria-label="SignIt"
       id="text1001-3"
       style="font-size:37.3333px;line-height:125%;font-family:Noto;-inkscape-font-specification:Noto;text-align:center;letter-spacing:0px;word-spacing:0px;text-anchor:middle;fill:#393939;stroke:none;stroke-width:1px"
       transform="translate(-21.1273,19.427174)">
      <path
         d="m 79.093782,133.63663 v 5.76042 q -2.242186,-1.00261 -4.374997,-1.51302 -2.13281,-0.51042 -4.028642,-0.51042 -2.515623,0 -3.718747,0.69271 -1.203124,0.69271 -1.203124,2.15104 0,1.09375 0.802083,1.71354 0.820311,0.60156 2.953122,1.03906 l 2.989581,0.60156 q 4.539059,0.91146 6.453119,2.77083 1.914061,1.85938 1.914061,5.28646 0,4.5026 -2.679685,6.70832 -2.661456,2.1875 -8.14843,2.1875 -2.58854,0 -5.195309,-0.49218 -2.606768,-0.49219 -5.213537,-1.45834 v -5.92447 q 2.606769,1.38541 5.031246,2.09635 2.442706,0.69271 4.703121,0.69271 2.296873,0 3.518226,-0.76563 1.221353,-0.76562 1.221353,-2.18749 0,-1.27604 -0.838541,-1.96875 -0.820312,-0.69271 -3.299476,-1.23958 l -2.716144,-0.60157 q -4.083329,-0.875 -5.979161,-2.78906 -1.877603,-1.91406 -1.877603,-5.15885 0,-4.0651 2.624998,-6.25259 2.624998,-2.1875 7.546869,-2.1875 2.242185,0 4.611975,0.34635 2.36979,0.32813 4.903642,1.0026 z"
         style="font-weight:600;font-family:'Linux Libertine';-inkscape-font-specification:'Linux Libertine Semi-Bold';fill:#00a99d;stroke:none"
         id="path455" />
      <path
         d="m 86.750026,139.57934 h 6.526036 v 20.41665 h -6.526036 z m 0,-7.94791 h 6.526036 v 5.32291 h -6.526036 z"
         style="font-weight:600;font-family:'Linux Libertine';-inkscape-font-specification:'Linux Libertine Semi-Bold';fill:#00a99d;stroke:none"
         id="path457" />
      <path
         d="m 113.4375,156.53245 q -1.34895,1.78646 -2.97135,2.625 -1.62239,0.83854 -3.7552,0.83854 -3.73698,0 -6.17968,-2.9349 -2.442711,-2.95312 -2.442711,-7.51041 0,-4.57551 2.442711,-7.49218 2.4427,-2.93489 6.17968,-2.93489 2.13281,0 3.7552,0.83854 1.6224,0.83854 2.97135,2.64323 v -3.02604 H 120 v 18.35675 q 0,4.92187 -3.11719,7.51041 -3.09895,2.60677 -9.0052,2.60677 -1.91406,0 -3.70051,-0.29166 -1.78646,-0.29167 -3.59115,-0.89323 v -5.08594 q 1.71354,0.98438 3.35417,1.45834 1.64062,0.49218 3.29947,0.49218 3.20833,0 4.70312,-1.40364 1.49479,-1.40365 1.49479,-4.39323 z m -4.30208,-12.70572 q -2.02343,0 -3.15364,1.49479 -1.13021,1.49479 -1.13021,4.22916 0,2.80729 1.09375,4.26562 1.09375,1.44011 3.1901,1.44011 2.04167,0 3.17188,-1.49479 1.1302,-1.49479 1.1302,-4.21094 0,-2.73437 -1.1302,-4.22916 -1.13021,-1.49479 -3.17188,-1.49479 z"
         style="font-weight:600;font-family:'Linux Libertine';-inkscape-font-specification:'Linux Libertine Semi-Bold';fill:#00a99d;stroke:none"
         id="path459" />
      <path
         d="m 146.79685,147.56371 v 12.43228 h -6.56249 v -2.02344 -7.49218 q 0,-2.64323 -0.12761,-3.64583 -0.10937,-1.0026 -0.40104,-1.47656 -0.38281,-0.63802 -1.03906,-0.98438 -0.65625,-0.36458 -1.49479,-0.36458 -2.04167,0 -3.20833,1.58594 -1.16667,1.5677 -1.16667,4.35676 v 10.04427 h -6.52603 v -20.41665 h 6.52603 v 2.98958 q 1.47656,-1.78646 3.13542,-2.625 1.65885,-0.85677 3.66405,-0.85677 3.53646,0 5.35938,2.16927 1.84114,2.16927 1.84114,6.30729 z"
         style="font-weight:600;font-family:'Linux Libertine';-inkscape-font-specification:'Linux Libertine Semi-Bold';fill:#00a99d;stroke:none"
         id="path461" />
      <path
         d="m 153.14059,132.77986 h 7.01823 v 27.21613 h -7.01823 z"
         style="fill:#484848;stroke:none"
         id="path463" />
      <path
         d="m 173.86714,133.78247 v 5.79687 h 6.72656 v 4.66666 h -6.72656 v 8.65885 q 0,1.42187 0.56511,1.93229 0.5651,0.49218 2.24218,0.49218 h 3.35417 v 4.66667 h -5.59635 q -3.86458,0 -5.48698,-1.60417 -1.60416,-1.62239 -1.60416,-5.48697 V 144.246 h -3.24479 v -4.66666 h 3.24479 v -5.79687 z"
         style="fill:#484848;stroke:none"
         id="path465" />
    </g>
    <path
       style="fill:#00a99d;fill-opacity:1;stroke:none;stroke-width:0.316687;stroke-linecap:round;stroke-linejoin:round"
       d="m 174.65437,27.72472 c -20.32422,-2.809761 -41.07445,14.81898 -45.19068,30.144441 -1.89893,7.070093 4.06678,13.54627 9.75345,5.828666 2.89001,-3.92214 4.72783,-7.30079 6.50753,-13.087017 0.74312,-2.416041 2.35992,-3.353009 4.23941,-2.099914 5.32928,3.553151 4.99437,13.39338 0.49248,19.337734 -2.80059,3.69795 -4.99632,10.163514 -4.46315,14.90426 0.44088,3.920253 -1.26432,16.437002 -7.97892,23.99699 -0.5445,0.61305 -2.35847,2.33825 1.17252,2.16243 8.4786,-0.42219 11.56507,-6.65302 12.80997,-14.149795 0.89808,-5.408217 0.62603,-11.986825 4.56413,-15.800849 5.2736,-5.107464 10.95081,-6.987623 21.3441,-5.43171 4.05117,0.606475 6.65268,-5.962124 2.10711,-7.866692 -5.12944,-2.149205 -17.35731,-1.946044 -22.14422,0.506425 -0.44327,0.227101 -2.50999,0.608512 -0.31545,-1.076199 8.04948,-6.179451 18.48165,-4.855964 26.38155,-2.730541 4.86902,1.309983 7.1118,-6.442688 2.14488,-8.618685 -7.16967,-3.141024 -23.33173,-2.853106 -28.75069,0.581086 -0.31825,0.201689 -2.45222,0.511614 -0.16596,-1.118095 9.58384,-6.831614 17.59583,-4.792239 26.49427,-4.015427 4.75553,0.415147 6.37704,-5.399322 2.54576,-8.196038 -2.78279,-2.031352 -22.19106,-2.950822 -33.70085,3.379145 -1.25739,0.691517 -1.83626,0.410114 -0.22354,-0.894346 5.8973,-4.770074 13.60935,-6.628994 21.52535,-7.378707 6.19569,-0.586783 5.48609,-7.736368 0.85095,-8.377162 z"
       id="path1254"
       sodipodi:nodetypes="sssssssssssssssssssssssss" />
    <path
       style="fill:#00a99d;fill-opacity:1;stroke:none;stroke-width:0.316687;stroke-linecap:round;stroke-linejoin:round"
       d="M 23.091038,27.72472 C 43.41526,24.914959 64.16549,42.5437 68.28171,57.869161 c 1.89894,7.070093 -4.06677,13.54627 -9.75345,5.828666 -2.890007,-3.92214 -4.727825,-7.30079 -6.50753,-13.087017 -0.743119,-2.416041 -2.359913,-3.353009 -4.239404,-2.099914 -5.329286,3.553151 -4.994371,13.39338 -0.492484,19.337734 2.800592,3.69795 4.996325,10.163514 4.463155,14.90426 -0.440885,3.920253 1.264318,16.437002 7.978913,23.99699 0.5445,0.61305 2.35848,2.33825 -1.172516,2.16243 C 50.079792,108.49012 46.993323,102.25929 45.748426,94.762515 44.85035,89.354298 45.122391,82.77569 41.184298,78.961666 c -5.273611,-5.107464 -10.95082,-6.987623 -21.344103,-5.43171 -4.051165,0.606475 -6.652684,-5.962124 -2.107112,-7.866692 5.129437,-2.149205 17.357313,-1.946044 22.144219,0.506425 0.443272,0.227101 2.509995,0.608512 0.315455,-1.076199 -8.049481,-6.179451 -18.48165,-4.855964 -26.381546,-2.730541 -4.8690253,1.309983 -7.1118033,-6.442688 -2.144895,-8.618685 7.169677,-3.141024 23.331744,-2.853106 28.750696,0.581086 0.318254,0.201689 2.452223,0.511614 0.165961,-1.118095 -9.583834,-6.831614 -17.595835,-4.792239 -26.494264,-4.015427 -4.7555403,0.415147 -6.3770433,-5.399322 -2.545766,-8.196038 2.782791,-2.031352 22.191064,-2.950822 33.700854,3.379145 1.257384,0.691517 1.836257,0.410114 0.223538,-0.894346 -5.897304,-4.770074 -13.609348,-6.628994 -21.525356,-7.378707 -6.19568,-0.586783 -5.486088,-7.736368 -0.850941,-8.377162 z"
       id="path2320"
       sodipodi:nodetypes="sssssssssssssssssssssssss" />
  </g>
  <text
     id="text453"
     y="223.42316"
     x="97.961243"
     style="font-style:normal;font-variant:normal;font-weight:normal;font-stretch:normal;font-size:37.3333px;line-height:125%;font-family:Noto;-inkscape-font-specification:Noto;text-align:center;letter-spacing:0px;word-spacing:0px;text-anchor:middle;fill:#393939;fill-opacity:1;stroke:none;stroke-width:1px;stroke-linecap:butt;stroke-linejoin:miter;stroke-opacity:1"
     xml:space="preserve"><tspan
       style="font-style:normal;font-variant:normal;font-weight:600;font-stretch:normal;font-size:37.3333px;font-family:'Linux Libertine';-inkscape-font-specification:'Linux Libertine Semi-Bold';fill:#00a99d;fill-opacity:1"
       y="223.42316"
       x="97.961243"
       id="tspan451"
       sodipodi:role="line">Sign<tspan
   style="font-size:37.3333px;fill:#484848;fill-opacity:1"
   id="tspan449">It</tspan></tspan></text>
</svg>
