<svg width="969" height="264" viewBox="0 0 969 264" fill="none" xmlns="http://www.w3.org/2000/svg">
<rect width="969" height="264" fill="#1E1E1E"/>
<g clip-path="url(#clip0_0_1)">
<rect width="969" height="264" fill="#00A99D"/>
<g clip-path="url(#clip1_0_1)">
<path d="M602.313 -40H365.687C348.739 -40 335 -26.2611 335 -9.31323V227.313C335 244.261 348.739 258 365.687 258H602.313C619.261 258 633 244.261 633 227.313V-9.31323C633 -26.2611 619.261 -40 602.313 -40Z" fill="#00A99D"/>
<path d="M477.561 199.835C476.26 194.432 477.942 181.964 477.561 171.257C455.238 168.111 444.971 153.123 439.657 138.888C437.547 132.979 437.356 130.61 437.034 106.392C436.69 80.4869 436.708 80.2033 439.291 72.0916C445.408 52.8833 464.658 38.7932 484.498 39.0226C507.414 39.2876 522.761 50.9485 529.295 72.4609C531.198 78.7234 531.693 89.0456 530.969 106.85C530.285 123.656 529.518 132.486 528.03 138.541C522.567 162.032 505.073 167.967 492.13 171.257C492.081 178.879 493.8 194.92 492.13 200.106C489.844 207.201 479.268 206.927 477.561 199.835ZM477.561 53.1481C465.857 52.559 452.229 65.6894 451.734 77.8477C451.734 80.1853 452.069 80.3651 456.452 80.3793C459.047 80.3876 461.707 80.7355 462.363 81.1523C464.419 82.4592 465.437 86.6116 464.418 89.5339C463.481 92.2226 460.496 93.5951 453.721 94.453C449.835 94.9449 450.599 97.6952 454.714 98.0314C462.438 98.6624 466.485 102.683 464.58 107.833C463.5 110.754 461.979 111.535 456.204 112.133C452.071 112.561 451.237 112.981 451.237 114.634C451.237 116.119 451.99 116.69 454.217 116.893C461.94 117.599 464.647 119.481 464.647 124.142C464.647 128.33 461.524 131.024 456.67 131.024C451.53 131.024 450.78 132.856 453.569 138.597C457.782 148.339 463.853 156.469 477.561 156.851V53.1481ZM516.79 132.006C516.457 131.466 514.31 131.017 512.02 131.009C507.295 130.992 506.144 130.431 504.529 127.364C501.708 122.005 504.883 117.916 512.456 117.156C516.95 116.705 517.791 116.308 517.791 114.634C517.791 112.933 516.956 112.573 511.985 112.131C505.77 111.579 503.387 109.772 503.387 105.614C503.387 101.531 506.656 98.8659 512.378 98.2829C515.277 97.9875 517.817 97.1908 518.043 96.5062C518.523 95.0531 517.469 94.642 511.067 93.7845C505.602 93.0526 502.754 89.9744 503.776 85.9041C504.767 81.9538 507.108 80.3641 511.933 80.3641C514.9 80.3641 516.547 79.8853 516.92 78.9138C515.549 61.2619 503.686 52.5892 492.13 53.1481V156.851C504.523 156.408 516.05 142.525 516.79 132.006Z" fill="white"/>
<path d="M601.619 13.1694C570.075 8.80845 537.869 36.1697 531.48 59.9561C528.532 70.9295 537.792 80.9811 546.618 69.0027C551.103 62.9152 553.956 57.6713 556.718 48.6905C557.872 44.9407 560.381 43.4864 563.298 45.4313C571.57 50.9461 571.05 66.2189 564.062 75.4451C559.716 81.1846 556.308 91.2197 557.135 98.5777C557.82 104.662 555.173 124.089 544.751 135.823C543.906 136.775 541.091 139.452 546.571 139.179C559.731 138.524 564.521 128.853 566.453 117.218C567.847 108.824 567.425 98.6131 573.537 92.6934C581.722 84.7662 590.534 81.8481 606.665 84.263C612.953 85.2043 616.991 75.0093 609.935 72.0532C601.974 68.7175 582.995 69.0328 575.566 72.8392C574.878 73.1917 571.67 73.7837 575.076 71.1689C587.57 61.5779 603.761 63.632 616.023 66.9308C623.58 68.9641 627.061 56.9313 619.352 53.5539C608.224 48.6788 583.139 49.1257 574.728 54.4558C574.234 54.7689 570.922 55.2499 574.471 52.7204C589.345 42.1172 601.781 45.2825 615.592 46.4882C622.973 47.1325 625.49 38.108 619.543 33.7672C615.224 30.6144 585.101 29.1873 567.237 39.012C565.285 40.0852 564.387 39.6485 566.89 37.6238C576.043 30.2203 588.012 27.3351 600.299 26.1715C609.915 25.2607 608.814 14.164 601.619 13.1694Z" fill="white"/>
<path d="M366.381 13.1694C397.925 8.80845 430.132 36.1697 436.52 59.9561C439.468 70.9295 430.208 80.9811 421.382 69.0027C416.897 62.9152 414.044 57.6713 411.282 48.6905C410.128 44.9407 407.619 43.4864 404.702 45.4313C396.43 50.9461 396.95 66.2189 403.938 75.4451C408.284 81.1846 411.692 91.2197 410.865 98.5777C410.18 104.662 412.827 124.089 423.249 135.823C424.094 136.775 426.909 139.452 421.429 139.179C408.269 138.524 403.479 128.853 401.547 117.218C400.153 108.824 400.575 98.6131 394.463 92.6934C386.278 84.7662 377.466 81.8481 361.335 84.263C355.047 85.2043 351.009 75.0093 358.065 72.0532C366.026 68.7175 385.005 69.0328 392.434 72.8392C393.122 73.1917 396.33 73.7837 392.924 71.1689C380.43 61.5779 364.239 63.632 351.977 66.9308C344.42 68.9641 340.939 56.9313 348.648 53.5539C359.776 48.6788 384.861 49.1257 393.272 54.4558C393.766 54.7689 397.078 55.2499 393.529 52.7204C378.655 42.1172 366.219 45.2825 352.408 46.4882C345.027 47.1325 342.51 38.108 348.457 33.7672C352.776 30.6144 382.899 29.1873 400.763 39.012C402.715 40.0852 403.613 39.6485 401.11 37.6238C391.957 30.2203 379.988 27.3351 367.701 26.1715C358.085 25.2607 359.186 14.164 366.381 13.1694Z" fill="white"/>
<path d="M438.034 219.131C437.898 217.756 437.313 216.687 436.278 215.926C435.244 215.165 433.841 214.784 432.068 214.784C430.864 214.784 429.847 214.955 429.017 215.295C428.188 215.625 427.551 216.085 427.108 216.676C426.676 217.267 426.46 217.938 426.46 218.688C426.438 219.312 426.568 219.858 426.852 220.324C427.148 220.79 427.551 221.193 428.062 221.534C428.574 221.864 429.165 222.153 429.835 222.403C430.506 222.642 431.222 222.847 431.983 223.017L435.119 223.767C436.642 224.108 438.04 224.562 439.312 225.131C440.585 225.699 441.688 226.398 442.619 227.227C443.551 228.057 444.273 229.034 444.784 230.159C445.307 231.284 445.574 232.574 445.585 234.028C445.574 236.165 445.028 238.017 443.949 239.585C442.881 241.142 441.335 242.352 439.312 243.216C437.301 244.068 434.875 244.494 432.034 244.494C429.216 244.494 426.761 244.062 424.67 243.199C422.591 242.335 420.966 241.057 419.795 239.364C418.636 237.659 418.028 235.551 417.972 233.04H425.114C425.193 234.21 425.528 235.187 426.119 235.972C426.722 236.744 427.523 237.33 428.523 237.727C429.534 238.114 430.676 238.307 431.949 238.307C433.199 238.307 434.284 238.125 435.205 237.761C436.136 237.398 436.858 236.892 437.369 236.244C437.881 235.597 438.136 234.852 438.136 234.011C438.136 233.227 437.903 232.568 437.438 232.034C436.983 231.5 436.313 231.045 435.426 230.67C434.551 230.295 433.477 229.955 432.205 229.648L428.403 228.693C425.46 227.977 423.136 226.858 421.432 225.335C419.727 223.812 418.881 221.761 418.892 219.182C418.881 217.068 419.443 215.222 420.58 213.642C421.727 212.062 423.301 210.83 425.301 209.943C427.301 209.057 429.574 208.614 432.119 208.614C434.71 208.614 436.972 209.057 438.903 209.943C440.847 210.83 442.358 212.062 443.438 213.642C444.517 215.222 445.074 217.051 445.108 219.131H438.034ZM450.413 244V217.818H457.675V244H450.413ZM454.061 214.443C452.982 214.443 452.055 214.085 451.283 213.369C450.521 212.642 450.141 211.773 450.141 210.761C450.141 209.761 450.521 208.903 451.283 208.188C452.055 207.46 452.982 207.097 454.061 207.097C455.141 207.097 456.061 207.46 456.822 208.188C457.595 208.903 457.982 209.761 457.982 210.761C457.982 211.773 457.595 212.642 456.822 213.369C456.061 214.085 455.141 214.443 454.061 214.443ZM475.287 254.364C472.935 254.364 470.918 254.04 469.236 253.392C467.565 252.756 466.236 251.886 465.247 250.784C464.259 249.682 463.616 248.443 463.321 247.068L470.037 246.165C470.241 246.688 470.565 247.176 471.009 247.631C471.452 248.085 472.037 248.449 472.764 248.722C473.503 249.006 474.401 249.148 475.457 249.148C477.037 249.148 478.338 248.761 479.361 247.989C480.395 247.227 480.912 245.949 480.912 244.153V239.364H480.605C480.287 240.091 479.81 240.778 479.173 241.426C478.537 242.074 477.719 242.602 476.719 243.011C475.719 243.42 474.526 243.625 473.139 243.625C471.173 243.625 469.384 243.17 467.77 242.261C466.168 241.341 464.889 239.937 463.935 238.051C462.991 236.153 462.52 233.756 462.52 230.858C462.52 227.892 463.003 225.415 463.969 223.426C464.935 221.437 466.219 219.949 467.821 218.96C469.435 217.972 471.202 217.477 473.122 217.477C474.588 217.477 475.815 217.727 476.804 218.227C477.793 218.716 478.588 219.33 479.19 220.068C479.804 220.795 480.276 221.511 480.605 222.216H480.878V217.818H488.088V244.256C488.088 246.483 487.543 248.347 486.452 249.847C485.361 251.347 483.849 252.472 481.918 253.222C479.997 253.983 477.787 254.364 475.287 254.364ZM475.44 238.17C476.611 238.17 477.599 237.881 478.406 237.301C479.224 236.71 479.849 235.869 480.281 234.778C480.724 233.676 480.946 232.358 480.946 230.824C480.946 229.29 480.73 227.96 480.298 226.835C479.866 225.699 479.241 224.818 478.423 224.193C477.605 223.568 476.611 223.256 475.44 223.256C474.247 223.256 473.241 223.58 472.423 224.227C471.605 224.864 470.986 225.75 470.565 226.886C470.145 228.023 469.935 229.335 469.935 230.824C469.935 232.335 470.145 233.642 470.565 234.744C470.997 235.835 471.616 236.682 472.423 237.284C473.241 237.875 474.247 238.17 475.44 238.17ZM501.128 228.864V244H493.866V217.818H500.787V222.438H501.094C501.673 220.915 502.645 219.71 504.009 218.824C505.372 217.926 507.026 217.477 508.969 217.477C510.787 217.477 512.372 217.875 513.724 218.67C515.077 219.466 516.128 220.602 516.878 222.08C517.628 223.545 518.003 225.295 518.003 227.33V244H510.741V228.625C510.753 227.023 510.344 225.773 509.514 224.875C508.685 223.966 507.543 223.511 506.088 223.511C505.111 223.511 504.247 223.722 503.497 224.142C502.759 224.562 502.179 225.176 501.759 225.983C501.349 226.778 501.139 227.739 501.128 228.864Z" fill="white"/>
<path d="M531.243 209.091V244H523.862V209.091H531.243ZM551.105 217.818V223.273H535.338V217.818H551.105ZM538.918 211.545H546.179V235.955C546.179 236.625 546.281 237.148 546.486 237.523C546.69 237.886 546.974 238.142 547.338 238.29C547.713 238.437 548.145 238.511 548.634 238.511C548.974 238.511 549.315 238.483 549.656 238.426C549.997 238.358 550.259 238.307 550.44 238.273L551.582 243.676C551.219 243.79 550.707 243.92 550.048 244.068C549.389 244.227 548.588 244.324 547.645 244.358C545.895 244.426 544.361 244.193 543.043 243.659C541.736 243.125 540.719 242.295 539.991 241.17C539.264 240.045 538.906 238.625 538.918 236.909V211.545Z" fill="#484343"/>
</g>
</g>
<defs>
<clipPath id="clip0_0_1">
<rect width="969" height="264" fill="white"/>
</clipPath>
<clipPath id="clip1_0_1">
<rect width="298" height="298" fill="white" transform="translate(335 -40)"/>
</clipPath>
</defs>
</svg>
